<?xml version="1.0" standalone="no"?>
<!DOCTYPE svg PUBLIC "-//W3C//DTD SVG 20010904//EN"
 "http://www.w3.org/TR/2001/REC-SVG-20010904/DTD/svg10.dtd">
<svg version="1.0" xmlns="http://www.w3.org/2000/svg"
 width="104.000000pt" height="102.000000pt" viewBox="0 0 104.000000 102.000000"
 preserveAspectRatio="xMidYMid meet">

<g transform="translate(0.000000,102.000000) scale(0.100000,-0.100000)"
fill="#000000" stroke="none">
<path d="M0 510 l0 -510 520 0 520 0 0 510 0 510 -520 0 -520 0 0 -510z m459
153 c6 -21 18 -71 27 -113 9 -41 19 -78 23 -83 4 -4 20 47 36 113 l29 120 48
0 c29 0 48 -4 48 -11 0 -7 -23 -83 -50 -170 l-51 -159 -58 0 -57 0 -49 158
c-26 86 -50 163 -53 170 -3 8 10 12 46 12 50 0 51 -1 61 -37z"/>
</g>
</svg>
